<svg xmlns="http://www.w3.org/2000/svg" viewBox="0 0 128 128" role="img" aria-labelledby="title">
  <title id="title">WordPress</title>
  <circle cx="64" cy="64" r="60" fill="#21759B"/>
  <circle cx="64" cy="64" r="51" fill="none" stroke="#fff" stroke-width="6"/>
  <path fill="#fff" d="M20 64c0 17.1 9.9 31.9 24.2 39L23.7 46.7A43.5 43.5 0 0 0 20 64Zm73.7-2.2c0-5.4-1.9-9.1-3.6-12-2.2-3.6-4.3-6.7-4.3-10.3 0-4 3-7.8 7.3-7.8h.6A43.8 43.8 0 0 0 27.4 40c1 .1 1.9.1 2.7.1 4.6 0 11.7-.6 11.7-.6 2.4-.1 2.7 3.4.3 3.7 0 0-2.4.3-5 .4l16 47.5 9.6-28.8-6.8-18.7c-2.4-.1-4.6-.4-4.6-.4-2.4-.1-2.1-3.8.3-3.7 0 0 7.2.6 11.5.6 4.6 0 11.7-.6 11.7-.6 2.4-.1 2.7 3.4.3 3.7 0 0-2.4.3-5 .4L86 90.7l4.1-13.7c1.8-5.7 3.6-9.8 3.6-15.2ZM64.8 67.8l-13.1 38a44.3 44.3 0 0 0 26.8-.7c-.1-.2-.2-.4-.3-.7L64.8 67.8Zm37.7-24c.2 1.4.3 2.9.3 4.5 0 4.4-.8 9.4-3.3 15.6L86.1 102.6A44 44 0 0 0 102.5 43.8Z"/>
</svg>
